<?xml version="1.0" encoding="utf-8"?>
<!-- Generator: Adobe Illustrator 22.1.0, SVG Export Plug-In . SVG Version: 6.00 Build 0)  -->
<svg version="1.1" id="Layer_1" xmlns="http://www.w3.org/2000/svg" xmlns:xlink="http://www.w3.org/1999/xlink" x="0px" y="0px"
	 viewBox="0 0 65.3 77.1" style="enable-background:new 0 0 65.3 77.1;" xml:space="preserve">
<style type="text/css">
	.st0{fill:#FCC402;}
	.st1{fill:#FFFFFF;}
	.st2{fill:#0359A4;}
</style>
<g>
	<g>
		<path class="st0" d="M65.3,0H0c0,2.2,0,4.4,0,6.6c0,4.8,0,9.6,0,14.4c0,4.6,0,9.1,0,13.7c0,3.5,0,6.9,1.1,10.3
			c0.5,1.6,1.1,3.1,1.8,4.6c2,4.3,4.8,8.2,8,11.7c4.7,5.1,10.3,9.3,16.3,12.8c1.7,1,3.7,2.1,5.5,3c1.7-0.9,3.8-2,5.5-3
			c6-3.5,11.6-7.7,16.3-12.8c3.2-3.5,6-7.4,8-11.7c0.7-1.5,1.3-3,1.8-4.6c1.1-3.4,1.1-6.8,1.1-10.3c0-4.6,0-9.1,0-13.7
			c0-4.8,0-9.6,0-14.4C65.3,4.4,65.3,2.2,65.3,0L65.3,0z"/>
		<path class="st1" d="M62.3,3.1v3.6V21v13.7c0,3.1,0,6.4-0.9,9.4c-0.4,1.4-1,2.8-1.7,4.2c-1.8,3.8-4.3,7.4-7.5,10.9
			c-4.1,4.5-9.4,8.6-15.6,12.3c-1.1,0.7-2.5,1.4-3.9,2.2c-1.4-0.7-2.8-1.5-3.9-2.2c-6.2-3.7-11.5-7.8-15.6-12.3
			c-3.2-3.5-5.7-7.1-7.5-10.9C5,46.9,4.4,45.5,4,44.1c-0.9-3-0.9-6.3-0.9-9.4V21V6.6V3.1H62.3"/>
		<g>
			<g>
				<path class="st2" d="M6.6,47.9c1.7,3.7,4.2,7.2,7.3,10.6c4.1,4.4,9.2,8.5,15.4,12.1c1,0.6,2.2,1.2,3.4,1.9
					c1.2-0.7,2.4-1.3,3.4-1.9c6.1-3.6,11.3-7.7,15.4-12.1c3.1-3.4,5.6-7,7.3-10.6c0.6-1.4,1.2-2.7,1.6-4.1c0.9-2.9,0.9-6,0.9-9.1
					V18.2l-57.2,0v16.5c0,3,0,6.2,0.9,9.1C5.4,45.2,5.9,46.5,6.6,47.9z"/>
			</g>
		</g>
		<path class="st2" d="M62.3,3.1"/>
		<g>
			<polygon class="st0" points="36.2,16.2 35.1,12 38.4,9.3 34.1,9 32.5,5 30.9,9 26.6,9.3 29.9,12 28.9,16.2 32.5,13.9 			"/>
			<polygon class="st0" points="54.6,16.2 53.5,12 56.9,9.3 52.6,9 50.9,5 49.3,9 45,9.3 48.3,12 47.3,16.2 50.9,13.9 			"/>
			<polygon class="st0" points="18,16.2 17,12 20.3,9.3 16,9 14.4,5 12.8,9 8.5,9.3 11.8,12 10.7,16.2 14.4,13.9 			"/>
		</g>
		<g>
			<path class="st0" d="M24.5,42.3v-3.5c-0.9-0.5-1.5-1-1.5-1.7c0-0.7,0.6-1.4,1.5-2v-3.1c-3.4,1.1-5.5,3-5.5,5.3
				C19,39.9,21.3,41.3,24.5,42.3z"/>
			<path class="st0" d="M48.3,34.1c-2.2-1.3-4.9-2.2-8.2-2.8c1.7,0.9,3,2.4,3.7,4.2c0.5,0.2,0.9,0.5,1.3,0.7L48.3,34.1z"/>
			<path class="st0" d="M24.5,50.9c-1.5-0.5-2.7-1.1-3.7-1.8l-3.1,2.2c1.8,1.1,4,2.1,6.8,2.7V50.9z"/>
			<path class="st0" d="M43.5,42.8c-0.6,1.1-1.4,2-2.3,2.6c2.5,0.7,3.7,1.6,3.7,3c0,1.1-1,2.4-3.8,3.2l1.6,2.5
				c4.6-1.3,6.5-3.6,6.5-5.9C49.2,45.4,46.8,43.8,43.5,42.8z"/>
			<g>
				<rect x="30.6" y="34.2" class="st0" width="4" height="9.1"/>
				<polygon class="st0" points="30.6,47.2 30.6,62 34.6,62 34.6,49.3 33.3,47.2 				"/>
				<polygon class="st0" points="49.3,28.5 49.3,24.9 16.1,24.9 16.1,28.5 30.6,28.5 30.6,30.3 34.6,30.3 34.6,28.5 				"/>
			</g>
			<path class="st0" d="M33.6,46.7h-5.3v10.5H25V30.8h10.6c4.8,0,8.3,3.1,8.3,8c0,4.8-3.2,7.4-6.9,7.7l7.1,10.8h-3.9L33.6,46.7z
				 M35.2,33.7h-6.9v10.1h6.9c3.1,0,5.3-2.1,5.3-5.1S38.3,33.7,35.2,33.7z"/>
			<g>
				<path class="st0" d="M30.1,40.3c-0.4-0.1-0.9-0.2-1.3-0.2v3.2h1.3V40.3z"/>
				<path class="st0" d="M35.2,41.1v2.2h0.1c1.6,0,2.9-0.6,3.7-1.6C37.7,41.5,36.4,41.3,35.2,41.1z"/>
			</g>
			<g>
				<path class="st0" d="M35.2,55.1c1.1,0,2.1-0.1,3.1-0.2l-1.6-2.5c-0.5,0-1,0.1-1.5,0.1V55.1z"/>
				<path class="st0" d="M30.1,52.3c-0.4-0.1-0.9-0.1-1.3-0.2v2.8c0.4,0,0.9,0.1,1.3,0.1V52.3z"/>
			</g>
		</g>
	</g>
</g>
</svg>
